<svg xmlns="http://www.w3.org/2000/svg" height="256" width="256" viewBox="0 0 256 256">
  <g>
    <path id="path1" transform="rotate(360,128,128) translate(45.3520072278968,0) scale(7.9999990463258,7.9999990463258)  " fill="#FFFFFF" d="M 10.632 19.2578 C 9.529 19.2578 8.526 20.1608 8.526 21.3648 C 8.526 22.1668 9.027 22.9688 9.729 23.2698 L 9.729 26.1788 L 11.434 26.1788 L 11.434 23.2698 C 12.136 22.9688 12.638 22.1668 12.638 21.3648 C 12.738 20.1608 11.735 19.2578 10.632 19.2578 z M 10.331 2.407 C 7.523 2.407 5.216 4.9149 5.216 8.0239 L 5.216 11.0329 C 5.216 11.4349 5.216 11.7349 5.316 12.1369 L 15.446 12.1369 C 15.547 11.7349 15.547 11.4349 15.547 11.0329 L 15.547 8.0239 C 15.547 4.9149 13.24 2.407 10.331 2.407 z M 10.331 0 C 14.143 0 17.252 3.4099 17.252 7.5229 L 17.252 11.5349 L 17.252 12.2369 C 19.258 12.7379 20.662 14.7449 20.662 17.0519 L 20.662 26.0818 C 20.662 29.7898 18.988 29.99 16.149 29.9967 L 4.513 29.9967 C 2.131 30.015 0 29.8898 0 26.1818 L 0 17.0519 C 0 14.7449 1.504 12.8389 3.41 12.2369 L 3.41 11.5349 L 3.41 7.5229 C 3.41 3.4099 6.519 0 10.331 0 z" />
  </g>
</svg>

